<svg width="707" height="607" viewBox="0 0 707 607" fill="none" xmlns="http://www.w3.org/2000/svg">
<g opacity="0.3">
<path d="M274.906 565.02C265.481 567.545 256.327 569.766 247.492 571.665C198.986 582.099 161.637 582.748 136.483 573.592C110.749 564.227 98.5136 544.689 100.112 515.518C104.97 426.96 117.622 369.489 125.993 331.463C129.761 314.347 132.738 300.826 133.586 290.599C134.995 273.58 153.418 246.55 181.663 220.055C212.059 191.544 246.976 169.855 277.464 160.55C319.512 147.717 362.35 123.152 390.88 104.804C424.115 83.4303 457.606 57.7357 480.466 36.0698C495.223 22.0826 512.818 17.0269 531.345 21.4478C563.423 29.1048 594.145 64.1226 611.52 112.832C619.754 135.919 628.27 159.795 635.024 183.226C642.494 209.132 646.935 231.695 648.605 252.201C650.596 276.687 648.796 298.967 643.104 320.307C636.747 344.134 625.714 366.28 609.374 388.012C581.467 425.128 491.904 480.991 391.577 523.86C350.534 541.395 310.753 555.411 274.905 565.016L274.906 565.02ZM505.657 22.6697C496.943 25.0048 488.708 29.759 481.215 36.8621C458.307 58.5745 424.757 84.3148 391.47 105.721C362.882 124.104 319.95 148.724 277.781 161.593C247.449 170.852 212.684 192.448 182.405 220.852C154.349 247.17 136.057 273.932 134.669 290.695C133.815 300.998 130.831 314.547 127.055 331.703C118.69 369.697 106.053 427.112 101.198 515.583C99.6285 544.218 111.624 563.393 136.857 572.577C161.814 581.659 198.96 580.997 247.265 570.609C289.628 561.498 339.382 544.99 391.15 522.869C491.322 480.068 580.703 424.348 608.507 387.367C624.762 365.748 635.735 343.727 642.056 320.034C647.717 298.814 649.508 276.657 647.525 252.296C643.809 206.592 626.873 159.117 610.499 113.203C593.249 64.8349 562.823 30.0824 531.094 22.5116C522.333 20.4195 513.785 20.4956 505.658 22.6732L505.657 22.6697Z" fill="white"/>
<path d="M276.011 545.803C268.556 547.801 261.295 549.585 254.251 551.147C209.832 560.992 175.639 561.833 152.616 553.645C129.344 545.367 118.172 527.938 119.41 501.842C122.569 422.993 133.291 368.354 140.384 332.203C143.714 315.231 146.343 301.826 147.145 291.484C148.448 274.767 165.329 248.967 191.203 224.148C218.909 197.572 251.316 177.098 280.117 167.972C318.852 155.945 358.374 133.572 384.705 116.926C415.64 97.3671 445.795 74.7957 467.437 54.9923C481.097 42.4977 497.316 38.1256 514.346 42.3481C543.907 49.6757 572.158 81.8974 588.074 126.446C603.13 168.46 618.7 211.906 622.127 254.725C623.933 277.278 622.267 297.817 617.035 317.514C611.2 339.484 601.091 359.914 586.142 379.97C560.587 414.485 478.402 466.509 386.287 506.484C347.42 523.35 309.758 536.765 276.008 545.808L276.011 545.803ZM489.964 43.374C482.201 45.4541 474.851 49.5963 468.129 55.7434C446.445 75.5844 416.238 98.1997 385.254 117.786C358.868 134.466 319.265 156.883 280.426 168.946C251.771 178.025 219.509 198.412 191.914 224.883C166.213 249.535 149.452 275.086 148.167 291.562C147.362 301.965 144.725 315.395 141.392 332.398C134.303 368.522 123.594 423.108 120.438 501.885C119.224 527.484 130.167 544.573 152.966 552.682C175.802 560.804 209.807 559.95 254.036 550.148C292.903 541.536 338.496 526.108 385.889 505.542C477.856 465.632 559.867 413.745 585.329 379.356C600.205 359.406 610.255 339.089 616.056 317.248C621.259 297.664 622.914 277.24 621.116 254.801C617.699 212.115 602.153 168.733 587.117 126.781C571.314 82.5508 543.338 50.5773 514.103 43.331C505.794 41.2716 497.673 41.3044 489.963 43.3705L489.964 43.374Z" fill="white"/>
<path d="M277.189 526.605C271.669 528.085 266.273 529.429 261.006 530.638C220.675 539.898 189.634 540.928 168.749 533.707C147.939 526.515 137.833 511.191 138.715 488.161C140.2 418.513 148.711 368.651 154.926 332.248C157.747 315.727 159.973 302.677 160.714 292.359C161.928 275.692 176.896 251.719 200.753 228.232C225.779 203.591 255.678 184.333 282.779 175.389C346.981 155.047 420.595 103.555 454.415 73.9099C466.979 62.9079 481.828 59.2175 497.365 63.2407C524.404 70.2398 550.179 99.6708 564.635 140.047C577.713 176.331 592.531 217.457 595.658 257.239C597.276 277.861 595.748 296.659 590.978 314.71C585.663 334.825 576.484 353.537 562.92 371.918C551.275 387.93 527.244 407.83 493.429 429.461C460.949 450.239 421.018 471.421 381.002 489.108C344.335 505.313 308.804 518.134 277.193 526.604L277.189 526.605ZM474.245 64.0669C467.44 65.8901 460.981 69.4228 455.041 74.6261C421.165 104.324 347.408 155.91 283.071 176.296C256.108 185.196 226.345 204.373 201.419 228.911C177.726 252.239 162.862 275.985 161.662 292.427C160.918 302.791 158.687 315.861 155.862 332.41C149.654 368.784 141.151 418.606 139.664 488.191C138.801 510.759 148.69 525.767 169.059 532.807C189.774 539.969 220.636 538.926 260.791 529.707C296.159 521.586 337.597 507.246 380.611 488.235C420.587 470.566 460.468 449.408 492.909 428.656C526.622 407.09 550.564 387.278 562.143 371.354C575.639 353.07 584.767 334.462 590.047 314.468C594.789 296.522 596.311 277.827 594.7 257.316C591.585 217.662 576.787 176.598 563.729 140.373C549.378 100.29 523.855 71.0875 497.117 64.1649C489.24 62.1244 481.542 62.1114 474.241 64.0678L474.245 64.0669Z" fill="white"/>
<path d="M278.456 507.432C274.821 508.406 271.254 509.313 267.744 510.152C231.499 518.823 203.616 520.049 184.865 513.796C166.521 507.678 157.488 494.453 158.014 474.489C157.817 413.399 164.633 365.861 169.612 331.153C171.757 316.195 173.61 303.279 174.275 293.24C175.385 276.866 188.852 254.091 210.293 232.322C232.655 209.62 260.043 191.571 285.434 182.808C310.831 174.568 340.887 160.167 372.364 141.161C397.629 125.905 422.785 108.288 441.388 92.8285C452.854 83.3122 466.342 80.3051 480.391 84.1384C504.901 90.8225 528.196 117.46 541.187 153.658C554.961 191.614 566.573 225.799 569.179 259.763C570.614 278.453 569.216 295.514 564.909 311.92C560.115 330.176 551.865 347.175 539.686 363.88C529.148 378.682 507.456 397.026 476.955 416.929C447.774 435.969 411.813 455.443 375.695 471.764C341.254 487.323 307.887 499.557 278.451 507.445L278.456 507.432ZM458.494 84.7419C452.655 86.3064 447.1 89.2374 441.953 93.5089C423.32 108.996 398.122 126.642 372.823 141.918C341.287 160.959 311.168 175.392 285.715 183.646C260.458 192.366 233.195 210.334 210.928 232.942C189.631 254.564 176.258 277.131 175.165 293.298C174.497 303.371 172.641 316.303 170.493 331.277C165.518 365.957 158.706 413.456 158.905 474.497C158.389 494.039 167.217 506.974 185.148 512.952C203.743 519.153 231.463 517.918 267.543 509.288C299.421 501.657 336.695 488.403 375.336 470.942C411.414 454.639 447.333 435.192 476.475 416.174C506.884 396.333 528.492 378.067 538.97 363.349C551.086 346.731 559.288 329.832 564.055 311.685C568.335 295.376 569.725 278.41 568.299 259.823C565.701 225.973 554.109 191.85 540.358 153.952C527.461 118.02 504.396 91.5948 480.161 84.9869C472.706 82.9533 465.406 82.8861 458.5 84.7366L458.494 84.7419Z" fill="white"/>
<path d="M279.839 488.303C278.03 488.787 276.242 489.252 274.468 489.697C242.311 497.782 217.58 499.201 200.962 493.912C185.086 488.86 177.127 477.726 177.312 460.813C175.346 407.48 180.598 361.632 184.433 328.156C185.954 314.883 187.269 303.418 187.834 294.122C188.856 277.786 200.521 256.752 219.833 236.412C239.552 215.644 264.427 198.811 288.087 190.231C335.312 174.471 393.901 138.499 428.358 111.748C438.738 103.707 450.868 101.385 463.436 105.035C485.405 111.415 506.214 135.256 517.741 167.261C529.574 199.6 540.385 231.201 542.701 262.276C543.951 279.029 542.687 294.354 538.843 309.115C534.573 325.515 527.249 340.793 516.458 355.826C507.029 369.416 487.671 386.214 460.483 404.394C434.602 421.699 402.605 439.466 370.388 454.423C338.21 469.358 307.043 481.014 279.84 488.306L279.839 488.303ZM442.7 105.395C437.844 106.696 433.199 109.035 428.864 112.392C394.355 139.183 335.665 175.215 288.36 191C264.827 199.535 240.067 216.293 220.434 236.974C201.25 257.179 189.67 278.025 188.66 294.17C188.093 303.486 186.777 314.962 185.256 328.246C181.422 361.696 176.175 407.509 178.138 460.802C177.958 477.331 185.722 488.199 201.217 493.128C217.687 498.37 242.267 496.947 274.273 488.899C302.656 481.755 335.777 469.583 370.044 453.672C402.221 438.734 434.18 420.991 460.029 403.706C487.134 385.582 506.415 368.862 515.791 355.35C526.528 340.398 533.808 325.207 538.053 308.907C541.875 294.234 543.129 278.999 541.889 262.337C539.582 231.364 528.787 199.822 516.976 167.541C505.537 135.779 484.941 112.131 463.217 105.824C456.158 103.774 449.24 103.65 442.705 105.401L442.7 105.395Z" fill="white"/>
<path d="M281.383 469.224L281.184 469.277C253.114 476.78 231.536 478.392 217.053 474.072C203.642 470.075 196.766 461.011 196.618 447.136C192.639 400.648 196.506 355.227 199.329 322.063C200.214 311.676 200.979 302.708 201.406 294.996C202.325 278.932 212.525 259.066 229.383 240.496C246.484 221.658 268.853 206.036 290.752 197.643C311.101 190.617 334.403 179.765 360.027 165.391C379.301 154.577 399.46 141.918 415.34 130.657C424.641 124.085 435.422 122.451 446.528 125.934C465.947 132.023 484.253 153.07 494.302 180.863C504.292 207.873 514.21 236.604 516.232 264.79C517.294 279.612 516.167 293.192 512.784 306.315C509.035 320.856 502.639 334.42 493.233 347.775C476.735 372.322 425.226 408.228 365.069 437.116C335.21 451.456 306.278 462.553 281.383 469.224ZM426.834 126.015C422.975 127.049 419.266 128.807 415.772 131.275C399.873 142.549 379.685 155.227 360.391 166.05C334.731 180.445 311.385 191.312 291.005 198.35C269.226 206.7 246.964 222.245 229.939 241.002C213.194 259.449 203.068 279.145 202.156 295.038C201.727 302.759 200.964 311.734 200.077 322.124C197.254 355.262 193.392 400.644 197.368 447.096C197.515 460.63 204.209 469.45 217.266 473.344C231.615 477.621 253.054 476.009 280.987 468.543L281.186 468.49C306.036 461.832 334.919 450.75 364.738 436.429C424.786 407.593 476.169 371.792 492.606 347.34C501.964 334.054 508.321 320.572 512.049 306.119C515.409 293.08 516.531 279.577 515.477 264.839C513.462 236.752 503.56 208.081 493.591 181.117C483.618 153.54 465.498 132.668 446.3 126.651C439.607 124.552 433.029 124.351 426.84 126.009L426.834 126.015Z" fill="white"/>
<path d="M283.038 450.269C261.404 456.066 244.625 457.426 233.118 454.309C222.177 451.343 216.39 444.341 215.915 433.487C209.329 392.968 212.096 345.613 214.116 311.031C214.432 305.604 214.732 300.48 214.964 295.877C215.797 279.829 224.307 261.615 238.923 244.586C253.663 227.418 273.011 213.381 293.403 205.062C307.666 199.922 346.801 184.239 402.314 149.575C410.547 144.462 420.001 143.517 429.658 146.853C446.5 152.669 462.285 170.915 470.853 194.466C479.095 216.453 488.032 242.026 489.752 267.308C491.572 294.027 485.11 317.713 469.999 339.727C462.776 350.916 448.082 364.632 427.517 379.388C407.93 393.441 384.491 407.435 359.735 419.857C334.169 432.683 309.321 442.735 287.878 448.923C286.239 449.396 284.623 449.844 283.035 450.27L283.038 450.269ZM410.871 146.582C408.037 147.341 405.294 148.537 402.68 150.159C393.798 155.705 375.687 166.713 354.175 178.116C331.59 190.091 311.23 199.371 293.654 205.703C273.373 213.977 254.119 227.944 239.451 245.032C224.935 261.945 216.484 280.012 215.659 295.908C215.426 300.512 215.127 305.638 214.813 311.069C212.793 345.625 210.028 392.946 216.607 433.395L216.61 433.435C217.062 443.966 222.678 450.763 233.303 453.641C245.36 456.907 264.168 455.048 287.692 448.258C309.097 442.08 333.901 432.047 359.431 419.238C384.154 406.833 407.564 392.857 427.123 378.827C447.619 364.122 462.248 350.469 469.432 339.346C484.457 317.461 490.878 293.913 489.072 267.359C487.358 242.169 478.439 216.651 470.214 194.713C461.714 171.345 446.092 153.262 429.44 147.511C423.06 145.305 416.767 145.009 410.88 146.587L410.871 146.582Z" fill="white"/>
<path d="M285.405 431.355C270.043 435.471 257.632 436.62 249.171 434.669C240.674 432.708 235.981 427.717 235.217 419.829C224.596 384.708 227.351 323.077 228.524 296.754C230.05 263.867 257.821 229.211 296.058 212.481C326.877 200.761 362.033 182.581 383.039 171.723C385.269 170.571 387.363 169.489 389.297 168.491C396.483 164.816 404.643 164.581 412.882 167.806C427.112 173.375 440.339 188.803 447.407 208.073C454.857 227.578 461.933 248.558 463.275 269.827C464.707 292.522 459.31 312.753 446.77 331.68C434.728 351.335 398.473 379.198 354.406 402.657C333.217 413.936 312.528 422.926 294.577 428.658C291.416 429.666 288.355 430.569 285.402 431.36L285.405 431.355ZM394.737 167.06C392.97 167.533 391.25 168.196 389.581 169.048C387.647 170.042 385.555 171.123 383.326 172.279C362.311 183.144 327.136 201.336 296.296 213.061C258.281 229.695 230.667 264.125 229.151 296.785C227.975 323.082 225.222 384.667 235.826 419.68L235.842 419.74C236.565 427.35 241.096 432.168 249.312 434.061C259.292 436.363 274.882 434.287 294.392 428.063C312.308 422.344 332.964 413.37 354.116 402.109C398.088 378.698 434.25 350.924 446.246 331.349C474.093 289.322 461.801 247.518 446.826 208.3C439.815 189.187 426.723 173.898 412.658 168.395C406.504 165.986 400.406 165.548 394.742 167.066L394.737 167.06Z" fill="white"/>
<path d="M288.156 412.77C278.767 415.286 270.938 416.184 265.262 415.263C259.149 414.267 255.538 411.214 254.529 406.191C248.924 397.36 245.082 380.769 243.105 356.879C241.666 339.473 241.294 317.88 242.09 297.634C243.415 265.145 264.583 236.088 298.717 219.902C310.871 214.94 323.454 209.52 335.623 204.277C351.362 197.497 366.227 191.097 376.285 187.406C384.76 184.333 394.455 186.411 403.581 193.253C412.233 199.739 419.659 210.098 423.964 221.675C434.303 248.042 436.254 262.602 436.802 272.343C437.85 291.004 433.512 307.782 423.543 323.629C413.673 340.934 385.166 364.66 349.147 385.536C326.139 398.872 304.719 408.335 288.157 412.773L288.156 412.77ZM378.318 187.352C377.698 187.518 377.087 187.712 376.478 187.931C366.434 191.615 351.578 198.012 335.846 204.79C323.674 210.034 311.087 215.452 298.944 220.41C265.016 236.5 243.964 265.377 242.65 297.653C241.856 317.879 242.225 339.447 243.662 356.831C245.633 380.671 249.46 397.194 255.03 405.933L255.057 405.978L255.07 406.027C256.012 410.829 259.468 413.75 265.35 414.711C280.916 417.25 312.918 405.884 348.863 385.05C384.802 364.222 413.232 340.577 423.061 323.343C432.973 307.589 437.28 290.921 436.241 272.377C435.205 253.914 428.856 235.691 423.438 221.88C419.172 210.394 411.812 200.126 403.244 193.703C394.93 187.471 386.155 185.256 378.318 187.355L378.318 187.352Z" fill="white"/>
<path d="M291.703 394.81C287.82 395.851 284.447 396.376 281.71 396.334C277.707 396.268 275.071 395.011 273.879 392.591C265.397 389.061 260.934 370.558 258.682 355.632C256.143 338.797 255.011 317.445 255.651 298.508C256.223 282.211 260.113 268.588 267.547 256.855C275.139 244.873 286.203 235.214 301.373 227.317C324.729 216.795 349.028 208.557 363.286 206.325C370.236 205.268 377.977 207.877 385.081 213.665C391.725 219.082 397.353 226.959 400.516 235.279C409.427 257.101 417.455 285.945 400.314 315.576C392.682 330.419 371.739 350.159 344.299 368.361C324.245 381.666 304.994 391.249 291.7 394.811L291.703 394.81ZM351.202 209.491C337.264 213.226 319.161 219.845 301.593 227.76C286.515 235.606 275.515 245.211 267.969 257.116C260.583 268.773 256.716 282.315 256.15 298.52C254.947 333.914 259.74 386.366 274.155 392.165L274.244 392.202L274.285 392.288C275.368 394.579 277.87 395.771 281.719 395.833C293.74 396.029 318.197 385.081 344.029 367.943C371.403 349.784 392.286 330.117 399.885 315.331C416.924 285.878 408.928 257.171 400.06 235.454L400.059 235.447C396.924 227.205 391.349 219.4 384.768 214.037C377.773 208.336 370.171 205.769 363.362 206.803C359.86 207.351 355.752 208.265 351.2 209.484L351.202 209.491Z" fill="white"/>
<path d="M297.379 378.562C295.704 379.011 294.342 379.147 293.352 378.937C290.665 380.091 288.093 379.855 285.708 378.246C278.729 373.537 274.723 358.208 272.589 346.173C270.05 331.856 268.794 314.363 269.222 299.379C269.716 282.428 272.145 270.575 277.101 260.941C282.384 250.669 290.947 242.339 304.041 234.728C319.206 226.828 337.366 223.108 350.309 225.249C361.925 227.22 373.043 238.808 377.078 248.872C386.115 269.485 386.119 289.216 377.095 307.512C373.891 314.867 368.063 323.202 359.783 332.281C352.613 340.14 343.784 348.32 334.242 355.935C319.307 367.857 305.067 376.494 297.381 378.554L297.379 378.562ZM293.307 378.492L293.375 378.507C294.327 378.728 295.649 378.598 297.283 378.16C314.202 373.627 364.292 335.816 376.7 307.341C385.671 289.153 385.663 269.546 376.676 249.051L376.675 249.044C372.683 239.088 361.7 227.625 350.23 225.678C337.372 223.552 319.317 227.255 304.237 235.11C291.224 242.673 282.716 250.943 277.469 261.142C272.546 270.715 270.132 282.511 269.638 299.394C269.211 314.353 270.469 331.811 273.001 346.104C275.121 358.057 279.085 373.273 285.937 377.896C288.212 379.43 290.668 379.641 293.236 378.518L293.299 378.49L293.307 378.492Z" fill="white"/>
<path d="M305.821 369.848C304.145 370.297 302.512 370.203 300.928 369.556C296.96 367.941 291.314 361.971 286.945 342.727C284.017 329.826 282.46 313.953 282.778 300.265C283.153 284.088 283.601 273.642 286.639 265.051C289.78 256.161 295.588 249.529 306.693 242.162C312.812 238.102 319.335 236.935 326.075 238.692C340.649 242.497 351.675 258.68 353.623 262.482C357.262 269.584 358.262 278.297 356.592 288.38C355.153 297.06 351.745 306.774 346.46 317.261C336.906 336.211 322.77 354.431 312.728 365.162C310.364 367.687 308.054 369.254 305.822 369.852L305.821 369.848ZM314.382 239.008C311.828 239.692 309.331 240.841 306.893 242.461C295.862 249.781 290.092 256.359 286.978 265.17C283.962 273.714 283.513 284.13 283.14 300.272C282.561 325.23 288.609 364.146 301.064 369.224C304.601 370.666 308.434 369.216 312.46 364.915C322.485 354.204 336.596 336.017 346.131 317.098C351.4 306.646 354.797 296.965 356.227 288.32C357.884 278.315 356.897 269.678 353.296 262.648C351.363 258.876 340.422 242.813 325.978 239.044C322.023 238.013 318.144 238.004 314.376 239.013L314.382 239.008Z" fill="white"/>
</g>
</svg>
